<svg width="222" height="90" viewBox="0 0 222 90" fill="none" xmlns="http://www.w3.org/2000/svg">
<path d="M3.89168 57.46C3.83168 59.02 3.86168 60.49 3.98168 61.87C4.16168 63.19 4.49168 64.51 4.97168 65.83C5.09168 66.31 5.24168 66.73 5.42168 67.09C5.66168 67.45 5.90168 67.84 6.14168 68.26C6.74168 69.1 7.52168 69.52 8.48168 69.52C8.60168 69.52 8.69168 69.52 8.75168 69.52C8.87168 69.46 8.99168 69.43 9.11168 69.43C11.2717 69.13 13.4317 68.26 15.5917 66.82C17.7517 65.38 19.7917 63.7 21.7117 61.78C23.6917 59.8 25.5217 57.76 27.2017 55.66C28.8817 53.56 30.3217 51.7 31.5217 50.08C31.9417 49.48 32.3617 48.91 32.7817 48.37C33.2617 47.77 33.7717 47.23 34.3117 46.75C34.4317 46.63 34.6417 46.42 34.9417 46.12C35.3017 45.82 35.6017 45.67 35.8417 45.67C36.0217 45.67 36.2017 45.76 36.3817 45.94C36.8017 46.18 36.8917 46.45 36.6517 46.75C36.2317 47.41 35.8417 48.1 35.4817 48.82C35.1217 49.48 34.7017 50.14 34.2217 50.8C33.2017 52 32.2117 53.26 31.2517 54.58C30.3517 55.84 29.3917 57.07 28.3717 58.27C27.4117 59.47 26.1817 60.88 24.6817 62.5C23.2417 64.06 21.6817 65.56 20.0017 67C18.3817 68.44 16.6717 69.67 14.8717 70.69C13.0717 71.71 11.3017 72.22 9.56168 72.22C8.78168 72.22 8.12168 72.1 7.58168 71.86C6.20168 71.38 5.03168 70.51 4.07168 69.25C3.17168 67.99 2.48168 66.73 2.00168 65.47C1.52168 64.27 1.16168 63.07 0.92168 61.87C0.68168 60.67 0.53168 59.47 0.47168 58.27C0.47168 55.51 0.65168 52.72 1.01168 49.9C1.37168 47.02 2.00168 44.23 2.90168 41.53C3.86168 38.83 5.12168 36.31 6.68168 33.97C8.24168 31.57 10.1917 29.53 12.5317 27.85C13.1917 27.43 13.8217 27.04 14.4217 26.68C15.0817 26.26 15.7717 25.9 16.4917 25.6C16.9717 25.42 17.4217 25.27 17.8417 25.15C18.3217 24.97 18.8317 24.88 19.3717 24.88C20.3917 24.88 21.2317 25.12 21.8917 25.6C22.0717 25.78 22.2817 25.93 22.5217 26.05C22.7617 26.17 23.0017 26.29 23.2417 26.41C23.9017 26.77 24.3217 27.28 24.5017 27.94C24.6817 28.6 24.5617 29.26 24.1417 29.92C24.0217 30.1 23.7817 30.37 23.4217 30.73C23.1817 30.85 23.0017 30.91 22.8817 30.91C22.7017 30.91 22.5817 30.88 22.5217 30.82C22.2217 30.7 22.0717 30.46 22.0717 30.1C22.0717 29.8 22.0717 29.53 22.0717 29.29C22.0717 29.05 22.0417 28.78 21.9817 28.48C21.9817 28.12 21.8017 27.94 21.4417 27.94C19.8217 27.94 18.2617 28.45 16.7617 29.47C15.2617 30.43 13.8817 31.63 12.6217 33.07C11.3617 34.51 10.2217 36.07 9.20168 37.75C8.24168 39.43 7.49168 40.96 6.95168 42.34C5.93168 44.86 5.18168 47.35 4.70168 49.81C4.28168 52.21 4.01168 54.76 3.89168 57.46ZM33.2359 57.19C33.2359 56.11 33.3259 54.94 33.5059 53.68C33.6259 52.42 33.8059 51.19 34.0459 49.99C34.3459 48.73 34.7359 47.53 35.2159 46.39C35.7559 45.25 36.3859 44.26 37.1059 43.42C37.5859 43.06 37.9759 42.88 38.2759 42.88C38.3359 42.88 38.5459 42.94 38.9059 43.06C39.2059 43.18 39.5359 43.27 39.8959 43.33C40.2559 43.33 40.6159 43.45 40.9759 43.69C41.7559 44.17 42.2959 44.92 42.5959 45.94C42.7159 46.24 42.7759 46.54 42.7759 46.84C42.8359 47.14 42.8959 47.44 42.9559 47.74C42.9559 48.16 43.0759 48.46 43.3159 48.64C43.5559 48.76 43.8259 48.88 44.1259 49C44.4259 49.06 44.7259 49.12 45.0259 49.18C45.3859 49.18 45.7159 49.18 46.0159 49.18C46.5559 49.18 47.2159 49.12 47.9959 49C48.8359 48.82 49.6759 48.61 50.5159 48.37C51.4159 48.07 52.2559 47.77 53.0359 47.47C53.8159 47.11 54.4459 46.78 54.9259 46.48C55.0459 46.42 55.2259 46.39 55.4659 46.39C56.1259 46.39 56.6059 46.69 56.9059 47.29C56.9659 47.53 56.9059 47.74 56.7259 47.92C56.5459 48.16 56.2759 48.34 55.9159 48.46C54.7159 49 53.3059 49.57 51.6859 50.17C50.0659 50.77 48.5659 51.07 47.1859 51.07C46.7059 51.07 46.2259 51.04 45.7459 50.98C45.3259 50.92 44.8759 50.83 44.3959 50.71C44.0359 50.59 43.7659 50.53 43.5859 50.53C43.2859 50.41 43.1359 50.53 43.1359 50.89C43.0759 51.13 43.0459 51.46 43.0459 51.88C42.9859 52.6 42.7759 53.68 42.4159 55.12C42.1159 56.56 41.6659 58 41.0659 59.44C40.5259 60.88 39.8659 62.14 39.0859 63.22C38.3059 64.3 37.4359 64.84 36.4759 64.84C35.6359 64.84 34.8559 64.24 34.1359 63.04C33.8359 62.56 33.6559 62.05 33.5959 61.51C33.4759 60.97 33.3559 60.43 33.2359 59.89C33.1759 59.41 33.1759 58.96 33.2359 58.54C33.2359 58.12 33.2359 57.67 33.2359 57.19ZM36.1159 58.27C35.9359 59.05 35.9059 59.86 36.0259 60.7C36.0859 60.94 36.0859 61.18 36.0259 61.42C36.0259 61.6 36.1759 61.75 36.4759 61.87C36.6559 61.93 36.8059 61.87 36.9259 61.69C37.1059 61.51 37.2559 61.36 37.3759 61.24C37.9159 60.7 38.4259 60.04 38.9059 59.26C39.5659 57.76 40.1059 56.29 40.5259 54.85C41.0059 53.35 41.3059 51.76 41.4259 50.08C41.4259 49.54 41.2459 49.12 40.8859 48.82C40.1059 48.22 39.4159 47.59 38.8159 46.93C38.6959 46.81 38.5759 46.75 38.4559 46.75C38.3959 46.75 38.3059 46.84 38.1859 47.02C37.8859 47.68 37.6159 48.34 37.3759 49C37.1959 49.6 37.0459 50.23 36.9259 50.89C36.6859 52.09 36.4459 53.32 36.2059 54.58C36.0259 55.84 35.9959 57.07 36.1159 58.27ZM41.1559 47.11C41.1559 46.75 41.1259 46.42 41.0659 46.12C41.0659 45.76 40.9759 45.43 40.7959 45.13C40.6759 45.01 40.5859 44.95 40.5259 44.95C40.4059 44.95 40.3159 44.98 40.2559 45.04C39.9559 45.34 39.8659 45.64 39.9859 45.94C40.1059 46.24 40.2259 46.48 40.3459 46.66C40.5259 46.84 40.7959 46.99 41.1559 47.11ZM57.6807 57.46C57.6207 59.02 57.6507 60.49 57.7707 61.87C57.9507 63.19 58.2807 64.51 58.7607 65.83C58.8807 66.31 59.0307 66.73 59.2107 67.09C59.4507 67.45 59.6907 67.84 59.9307 68.26C60.5307 69.1 61.3107 69.52 62.2707 69.52C62.3907 69.52 62.4807 69.52 62.5407 69.52C62.6607 69.46 62.7807 69.43 62.9007 69.43C65.0607 69.13 67.2207 68.26 69.3807 66.82C71.5407 65.38 73.5807 63.7 75.5007 61.78C77.4807 59.8 79.3107 57.76 80.9907 55.66C82.6707 53.56 84.1107 51.7 85.3107 50.08C85.7307 49.48 86.1507 48.91 86.5707 48.37C87.0507 47.77 87.5607 47.23 88.1007 46.75C88.2207 46.63 88.4307 46.42 88.7307 46.12C89.0907 45.82 89.3907 45.67 89.6307 45.67C89.8107 45.67 89.9907 45.76 90.1707 45.94C90.5907 46.18 90.6807 46.45 90.4407 46.75C90.0207 47.41 89.6307 48.1 89.2707 48.82C88.9107 49.48 88.4907 50.14 88.0107 50.8C86.9907 52 86.0007 53.26 85.0407 54.58C84.1407 55.84 83.1807 57.07 82.1607 58.27C81.2007 59.47 79.9707 60.88 78.4707 62.5C77.0307 64.06 75.4707 65.56 73.7907 67C72.1707 68.44 70.4607 69.67 68.6607 70.69C66.8607 71.71 65.0907 72.22 63.3507 72.22C62.5707 72.22 61.9107 72.1 61.3707 71.86C59.9907 71.38 58.8207 70.51 57.8607 69.25C56.9607 67.99 56.2707 66.73 55.7907 65.47C55.3107 64.27 54.9507 63.07 54.7107 61.87C54.4707 60.67 54.3207 59.47 54.2607 58.27C54.2607 55.51 54.4407 52.72 54.8007 49.9C55.1607 47.02 55.7907 44.23 56.6907 41.53C57.6507 38.83 58.9107 36.31 60.4707 33.97C62.0307 31.57 63.9807 29.53 66.3207 27.85C66.9807 27.43 67.6107 27.04 68.2107 26.68C68.8707 26.26 69.5607 25.9 70.2807 25.6C70.7607 25.42 71.2107 25.27 71.6307 25.15C72.1107 24.97 72.6207 24.88 73.1607 24.88C74.1807 24.88 75.0207 25.12 75.6807 25.6C75.8607 25.78 76.0707 25.93 76.3107 26.05C76.5507 26.17 76.7907 26.29 77.0307 26.41C77.6907 26.77 78.1107 27.28 78.2907 27.94C78.4707 28.6 78.3507 29.26 77.9307 29.92C77.8107 30.1 77.5707 30.37 77.2107 30.73C76.9707 30.85 76.7907 30.91 76.6707 30.91C76.4907 30.91 76.3707 30.88 76.3107 30.82C76.0107 30.7 75.8607 30.46 75.8607 30.1C75.8607 29.8 75.8607 29.53 75.8607 29.29C75.8607 29.05 75.8307 28.78 75.7707 28.48C75.7707 28.12 75.5907 27.94 75.2307 27.94C73.6107 27.94 72.0507 28.45 70.5507 29.47C69.0507 30.43 67.6707 31.63 66.4107 33.07C65.1507 34.51 64.0107 36.07 62.9907 37.75C62.0307 39.43 61.2807 40.96 60.7407 42.34C59.7207 44.86 58.9707 47.35 58.4907 49.81C58.0707 52.21 57.8007 54.76 57.6807 57.46ZM93.055 65.02V63.76C92.935 62.68 92.875 61.6 92.875 60.52C92.935 59.44 93.025 58.33 93.145 57.19C93.385 52.93 94.285 48.76 95.845 44.68C97.465 40.54 99.685 36.85 102.505 33.61C103.405 32.65 104.305 31.87 105.205 31.27C105.805 30.97 106.315 30.82 106.735 30.82C107.215 30.82 107.755 31 108.355 31.36C109.135 31.84 109.615 32.38 109.795 32.98C110.035 33.58 110.125 34.27 110.065 35.05C110.005 36.37 109.585 37.81 108.805 39.37C108.025 40.87 107.065 42.37 105.925 43.87C104.845 45.31 103.705 46.69 102.505 48.01C101.305 49.33 100.225 50.47 99.265 51.43C99.085 51.61 99.115 51.82 99.355 52.06C100.375 52.72 101.335 53.47 102.235 54.31C103.135 55.15 104.095 55.93 105.115 56.65C106.135 57.43 107.215 57.82 108.355 57.82C109.375 57.82 110.335 57.52 111.235 56.92C112.195 56.26 113.065 55.48 113.845 54.58C114.625 53.62 115.315 52.63 115.915 51.61C116.575 50.53 117.115 49.6 117.535 48.82C117.955 48.1 118.435 47.32 118.975 46.48C119.035 46.36 119.125 46.3 119.245 46.3C119.425 46.3 119.545 46.36 119.605 46.48C120.025 46.78 120.235 46.99 120.235 47.11C120.235 47.23 120.175 47.44 120.055 47.74C119.935 48.04 119.785 48.37 119.605 48.73C119.485 49.09 119.305 49.42 119.065 49.72C118.465 50.68 117.865 51.64 117.265 52.6C116.725 53.5 116.125 54.43 115.465 55.39C114.865 56.53 113.965 57.58 112.765 58.54C111.625 59.44 110.395 59.89 109.075 59.89C107.875 59.89 106.735 59.56 105.655 58.9C104.635 58.18 103.705 57.46 102.865 56.74C102.385 56.32 101.935 55.93 101.515 55.57C101.155 55.15 100.765 54.73 100.345 54.31C100.045 54.01 99.745 53.74 99.445 53.5C99.145 53.26 98.815 53.05 98.455 52.87C98.275 52.87 98.065 52.75 97.825 52.51C97.045 51.91 97.015 51.19 97.735 50.35C98.035 50.05 98.305 49.75 98.545 49.45C98.845 49.15 99.145 48.85 99.445 48.55C101.125 46.87 102.775 44.83 104.395 42.43C106.015 39.97 107.185 37.57 107.905 35.23C108.085 34.57 108.115 33.85 107.995 33.07C107.995 32.71 107.845 32.53 107.545 32.53C107.425 32.53 107.335 32.56 107.275 32.62C106.675 32.74 106.045 33.04 105.385 33.52C104.725 34 104.095 34.57 103.495 35.23C102.955 35.89 102.415 36.55 101.875 37.21C101.395 37.87 101.005 38.44 100.705 38.92C97.465 43.9 95.395 49.27 94.495 55.03C94.195 57.07 94.015 59.11 93.955 61.15C93.955 63.13 94.075 65.14 94.315 67.18C94.435 68.32 94.555 69.46 94.675 70.6C94.795 71.68 94.915 72.79 95.035 73.93C95.215 74.95 95.365 75.94 95.485 76.9C95.665 77.92 95.815 78.94 95.935 79.96C96.055 80.5 96.115 81.04 96.115 81.58C96.175 82.12 96.265 82.69 96.385 83.29V83.83C96.385 84.25 96.175 84.46 95.755 84.46C95.575 84.46 95.425 84.43 95.305 84.37C94.765 84.07 94.345 83.59 94.045 82.93C93.565 81.97 93.085 80.68 92.605 79.06C92.185 77.5 91.795 75.85 91.435 74.11C91.075 72.31 90.745 70.57 90.445 68.89C90.205 67.15 89.995 65.65 89.815 64.39C89.515 61.33 89.275 58.27 89.095 55.21C88.915 52.15 88.825 49.09 88.825 46.03C88.825 39.55 89.305 32.74 90.265 25.6C91.285 18.46 92.725 11.74 94.585 5.44C94.705 4.96 94.855 4.48 95.035 4C95.215 3.46 95.485 2.95 95.845 2.47C96.025 2.29 96.175 2.2 96.295 2.2C96.415 2.2 96.565 2.29 96.745 2.47C96.865 2.53 96.925 2.62 96.925 2.74C96.925 2.8 96.985 2.83 97.105 2.83C97.645 2.95 97.915 3.16 97.915 3.46C97.975 3.75999 97.975 4.15 97.915 4.63C97.675 6.25 97.375 7.87 97.015 9.49C96.655 11.05 96.325 12.64 96.025 14.26C94.825 20.2 93.835 26.08 93.055 31.9C92.335 37.72 91.975 43.66 91.975 49.72C91.915 51.46 91.915 53.2 91.975 54.94C92.035 56.62 92.155 58.33 92.335 60.07C92.455 60.85 92.515 61.66 92.515 62.5C92.575 63.28 92.755 64.12 93.055 65.02ZM137.342 18.4H130.322C129.722 18.4 129.272 18.43 128.972 18.49C128.732 18.49 128.582 18.61 128.522 18.85C128.402 19.15 128.282 19.48 128.162 19.84C128.102 20.14 128.012 20.44 127.892 20.74C127.652 21.7 127.442 22.66 127.262 23.62C127.082 24.52 126.872 25.42 126.632 26.32C126.332 27.82 126.002 29.29 125.642 30.73C125.342 32.17 125.042 33.64 124.742 35.14C124.142 38.62 123.632 42.13 123.212 45.67C122.852 49.21 122.672 52.78 122.672 56.38C122.732 57.58 122.732 58.78 122.672 59.98C122.612 61.12 122.612 62.29 122.672 63.49C122.732 64.75 122.852 66.4 123.032 68.44C123.212 70.42 123.452 72.49 123.752 74.65C124.112 76.75 124.502 78.76 124.922 80.68C125.342 82.66 125.852 84.22 126.452 85.36C126.512 85.54 126.602 85.75 126.722 85.99C126.902 86.29 127.082 86.44 127.262 86.44C127.322 86.44 127.472 86.38 127.712 86.26C129.272 85.24 130.622 83.86 131.762 82.12C132.962 80.44 133.922 78.76 134.642 77.08C135.842 74.38 136.922 71.68 137.882 68.98C138.902 66.28 139.862 63.55 140.762 60.79C141.422 58.75 142.082 56.74 142.742 54.76C143.462 52.78 144.152 50.77 144.812 48.73C144.932 48.37 145.052 48.01 145.172 47.65C145.292 47.29 145.502 46.96 145.802 46.66C145.982 46.36 146.132 46.21 146.252 46.21C146.312 46.27 146.372 46.3 146.432 46.3C146.612 46.36 146.762 46.48 146.882 46.66C147.062 46.84 147.122 46.99 147.062 47.11C147.062 47.23 147.032 47.35 146.972 47.47C146.972 47.59 146.972 47.71 146.972 47.83C146.552 49.69 146.012 51.58 145.352 53.5C144.332 56.44 143.312 59.38 142.292 62.32C141.332 65.2 140.342 68.11 139.322 71.05C138.722 72.73 138.092 74.38 137.432 76C136.832 77.62 136.172 79.21 135.452 80.77C135.212 81.31 134.882 81.94 134.462 82.66C134.042 83.44 133.562 84.19 133.022 84.91C132.542 85.69 132.032 86.41 131.492 87.07C130.952 87.73 130.442 88.24 129.962 88.6C129.422 89.08 128.732 89.32 127.892 89.32C127.172 89.32 126.512 89.11 125.912 88.69C125.012 88.15 124.232 87.34 123.572 86.26C121.952 83.32 120.812 80.17 120.152 76.81C119.552 73.51 119.072 70.21 118.712 66.91C118.592 65.77 118.502 64.63 118.442 63.49C118.382 62.35 118.292 61.21 118.172 60.07C118.112 59.17 118.112 58.27 118.172 57.37C118.232 56.47 118.292 55.57 118.352 54.67C118.352 53.83 118.322 53.02 118.262 52.24C118.262 51.46 118.322 50.65 118.442 49.81C118.682 45.85 119.072 41.95 119.612 38.11C120.212 34.27 120.902 30.43 121.682 26.59C121.982 25.45 122.252 24.34 122.492 23.26C122.792 22.18 123.092 21.07 123.392 19.93C123.392 19.81 123.392 19.69 123.392 19.57C123.452 19.45 123.482 19.33 123.482 19.21C123.542 18.85 123.362 18.64 122.942 18.58H121.412C119.492 18.76 117.572 18.94 115.652 19.12C113.732 19.24 111.812 19.36 109.892 19.48C109.412 19.54 108.902 19.57 108.362 19.57C107.822 19.57 107.282 19.57 106.742 19.57C106.142 19.57 105.662 19.33 105.302 18.85C104.702 18.07 104.852 17.59 105.752 17.41C108.452 16.75 111.422 16.3 114.662 16.06C117.842 15.76 120.812 15.61 123.572 15.61C123.932 15.61 124.202 15.58 124.382 15.52C124.562 15.4 124.742 15.1 124.922 14.62C125.042 14.26 125.222 13.66 125.462 12.82C125.762 11.98 126.092 11.14 126.452 10.3C126.812 9.4 127.202 8.61999 127.622 7.96C128.102 7.3 128.522 6.97 128.882 6.97C129.062 6.97 129.272 7.09 129.512 7.33C129.632 7.57 129.812 7.77999 130.052 7.96C130.532 8.2 130.802 8.38 130.862 8.49999C130.922 8.62 130.892 8.92 130.772 9.4C130.592 10.24 130.412 11.11 130.232 12.01C130.052 12.91 129.812 13.78 129.512 14.62C129.452 15.22 129.692 15.52 130.232 15.52C131.072 15.52 131.942 15.52 132.842 15.52C133.742 15.46 134.612 15.43 135.452 15.43C137.432 15.49 139.382 15.55 141.302 15.61C143.282 15.61 145.262 15.61 147.242 15.61C147.722 15.55 148.142 15.67 148.502 15.97C148.922 16.21 149.312 16.42 149.672 16.6C149.792 16.72 149.822 16.9 149.762 17.14C149.762 17.32 149.702 17.41 149.582 17.41C148.802 17.65 148.142 17.8 147.602 17.86C146.042 17.98 144.452 18.07 142.832 18.13C141.272 18.19 139.442 18.28 137.342 18.4ZM147.58 49.72C147.52 49.72 147.49 49.72 147.49 49.72H147.58ZM147.76 49.63C148 49.63 148.15 49.6 148.21 49.54C149.83 48.22 151.39 46.9 152.89 45.58C154.39 44.2 155.89 42.79 157.39 41.35C157.63 41.17 157.93 40.84 158.29 40.36C158.59 40.06 158.53 39.79 158.11 39.55C157.69 39.31 157.24 39.19 156.76 39.19H156.31C155.53 39.37 154.69 39.82 153.79 40.54C152.89 41.2 152.02 42.01 151.18 42.97C150.4 43.93 149.68 44.92 149.02 45.94C148.42 46.96 147.97 47.89 147.67 48.73C147.49 49.09 147.46 49.42 147.58 49.72C147.64 49.66 147.7 49.63 147.76 49.63ZM160 38.74L163.24 35.77C163.84 35.23 164.44 34.72 165.04 34.24C165.7 33.7 166.36 33.19 167.02 32.71C167.2 32.59 167.35 32.47 167.47 32.35C167.65 32.23 167.83 32.11 168.01 31.99C168.13 31.87 168.34 31.81 168.64 31.81C168.82 31.81 169.15 31.93 169.63 32.17C170.47 32.65 170.8 33.4 170.62 34.42C170.5 35.14 170.32 35.83 170.08 36.49C169.9 37.15 169.66 37.81 169.36 38.47C168.7 40.15 168.04 41.83 167.38 43.51C166.72 45.19 166.06 46.87 165.4 48.55C164.56 50.83 163.84 53.14 163.24 55.48C162.64 57.76 162.19 60.13 161.89 62.59C161.71 64.15 161.68 65.71 161.8 67.27C161.92 68.83 162.31 70.36 162.97 71.86C163.09 72.1 163.21 72.34 163.33 72.58C163.45 72.76 163.57 72.97 163.69 73.21C163.93 73.63 164.26 73.84 164.68 73.84C164.74 73.84 164.95 73.78 165.31 73.66C166.09 73.24 166.84 72.7 167.56 72.04C168.28 71.32 168.88 70.6 169.36 69.88C170.14 68.8 171.07 67.36 172.15 65.56C173.29 63.7 174.43 61.78 175.57 59.8C176.77 57.82 177.88 55.9 178.9 54.04C179.98 52.18 180.82 50.68 181.42 49.54C181.72 49 181.99 48.49 182.23 48.01C182.53 47.47 182.86 46.96 183.22 46.48C183.34 46.36 183.49 46.3 183.67 46.3C183.79 46.3 183.91 46.33 184.03 46.39C184.33 46.63 184.51 46.84 184.57 47.02C184.63 47.14 184.6 47.41 184.48 47.83C184.36 48.13 184.24 48.4 184.12 48.64C184 48.88 183.85 49.15 183.67 49.45C183.01 50.65 182.17 52.21 181.15 54.13C180.13 56.05 179.05 58.03 177.91 60.07C176.83 62.11 175.75 64.06 174.67 65.92C173.59 67.78 172.66 69.28 171.88 70.42C171.34 71.2 170.77 71.95 170.17 72.67C169.63 73.39 169 74.05 168.28 74.65C167.92 74.95 167.44 75.25 166.84 75.55C166.3 75.85 165.79 76 165.31 76C164.59 76 163.9 75.7 163.24 75.1C162.04 73.84 161.11 72.37 160.45 70.69C159.49 67.87 159.13 64.99 159.37 62.05C159.61 58.27 160.36 54.52 161.62 50.8C162.94 47.02 164.35 43.42 165.85 40C166.51 38.56 167.17 37.06 167.83 35.5C168.01 35.2 168.04 34.99 167.92 34.87C167.8 34.81 167.74 34.78 167.74 34.78C167.62 34.78 167.47 34.87 167.29 35.05C166.57 35.65 165.85 36.25 165.13 36.85C164.47 37.45 163.81 38.08 163.15 38.74C161.11 40.84 159.04 42.94 156.94 45.04C154.9 47.08 152.8 49.12 150.64 51.16C150.34 51.4 150.04 51.64 149.74 51.88C149.44 52.12 149.08 52.3 148.66 52.42C148.24 52.6 147.85 52.69 147.49 52.69C146.89 52.69 146.26 52.33 145.6 51.61C145.12 50.95 144.82 50.29 144.7 49.63C144.64 48.91 144.73 48.19 144.97 47.47C145.33 46.57 145.81 45.58 146.41 44.5C147.07 43.42 147.82 42.37 148.66 41.35C149.5 40.27 150.4 39.34 151.36 38.56C152.32 37.72 153.28 37.18 154.24 36.94C154.84 36.82 155.29 36.76 155.59 36.76C156.37 36.76 157.09 36.97 157.75 37.39C158.11 37.63 158.47 37.87 158.83 38.11C159.19 38.29 159.58 38.5 160 38.74ZM184.938 61.15C185.238 61.21 185.508 61.15 185.748 60.97C185.988 60.79 186.228 60.64 186.468 60.52C188.328 59.32 190.008 57.7 191.508 55.66C193.008 53.56 194.328 51.55 195.468 49.63C195.768 49.03 196.098 48.46 196.458 47.92C196.878 47.38 197.268 46.81 197.628 46.21C197.748 45.97 197.928 45.88 198.168 45.94C198.348 46 198.528 46.15 198.708 46.39C198.948 46.63 199.038 46.81 198.978 46.93C198.978 47.11 198.918 47.26 198.798 47.38C198.558 47.86 198.318 48.34 198.078 48.82C197.898 49.24 197.688 49.69 197.448 50.17C196.608 51.55 195.768 52.9 194.928 54.22C194.148 55.54 193.278 56.83 192.318 58.09C191.598 58.99 190.848 59.86 190.068 60.7C189.348 61.48 188.508 62.2 187.548 62.86C187.188 63.22 186.858 63.43 186.558 63.49C186.138 63.67 185.748 63.76 185.388 63.76C184.248 63.76 183.378 63.28 182.778 62.32C182.238 61.36 181.878 60.4 181.698 59.44C181.398 58.36 181.308 57.25 181.428 56.11C181.428 54.85 181.488 53.62 181.608 52.42C181.728 51.16 181.938 49.93 182.238 48.73C182.418 47.59 182.808 46.6 183.408 45.76C183.528 45.64 183.648 45.49 183.768 45.31C183.948 45.13 184.098 44.98 184.218 44.86C184.698 44.5 185.058 44.32 185.298 44.32C185.598 44.32 185.988 44.47 186.468 44.77C186.588 44.83 186.678 44.89 186.738 44.95C186.798 45.01 186.888 45.07 187.008 45.13C187.308 45.31 187.488 45.58 187.548 45.94C187.608 46.24 187.488 46.48 187.188 46.66C186.348 47.14 185.838 47.74 185.658 48.46C185.478 49.18 185.328 49.93 185.208 50.71C184.908 52.03 184.728 53.35 184.668 54.67C184.608 55.93 184.548 57.22 184.488 58.54C184.488 59.26 184.488 59.74 184.488 59.98C184.548 60.22 184.698 60.61 184.938 61.15ZM193.218 24.25C193.278 24.91 193.188 25.57 192.948 26.23C192.768 26.83 192.558 27.46 192.318 28.12C192.138 28.78 191.928 29.47 191.688 30.19C191.448 30.85 191.178 31.51 190.878 32.17C190.278 33.73 189.708 35.32 189.168 36.94C188.628 38.5 188.088 40.06 187.548 41.62C187.308 41.98 187.038 42.13 186.738 42.07C186.558 42.07 186.408 42.01 186.288 41.89C186.228 41.71 186.138 41.56 186.018 41.44C185.898 41.2 185.898 40.87 186.018 40.45C186.498 37.81 187.218 34.96 188.178 31.9C189.198 28.84 190.248 26.11 191.328 23.71C191.448 23.59 191.508 23.44 191.508 23.26C191.568 23.08 191.658 22.93 191.778 22.81C191.898 22.63 192.018 22.54 192.138 22.54C192.318 22.54 192.438 22.57 192.498 22.63C192.738 22.81 192.948 23.02 193.128 23.26C193.308 23.44 193.338 23.68 193.218 23.98V24.25ZM220.77 45.76C221.13 46.12 221.25 46.63 221.13 47.29C221.01 47.89 220.89 48.49 220.77 49.09C220.65 49.63 220.47 50.17 220.23 50.71C219.03 53.95 217.86 57.16 216.72 60.34C215.64 63.52 214.5 66.73 213.3 69.97C212.28 72.79 211.14 75.43 209.88 77.89C208.68 80.41 207.24 82.93 205.56 85.45C205.02 85.99 204.42 86.26 203.76 86.26C203.16 86.26 202.65 86.05 202.23 85.63C200.97 84.55 199.98 83.05 199.26 81.13C198.54 79.21 197.97 77.14 197.55 74.92C197.19 72.7 196.92 70.51 196.74 68.35C196.62 66.19 196.56 64.36 196.56 62.86C196.5 61.12 196.5 59.44 196.56 57.82C196.68 56.14 196.8 54.43 196.92 52.69C196.98 51.67 197.07 50.71 197.19 49.81C197.31 48.85 197.4 47.86 197.46 46.84C198 40.18 198.81 33.55 199.89 26.95C201.03 20.35 202.74 13.9 205.02 7.6C205.44 6.4 205.89 5.23 206.37 4.09C206.91 2.89 207.54 1.78 208.26 0.759998C208.5 0.519997 208.68 0.399997 208.8 0.399997C208.92 0.399997 209.1 0.519997 209.34 0.759998C209.46 0.819997 209.52 0.879996 209.52 0.939995C209.58 0.939995 209.67 0.969995 209.79 1.02999C210.21 1.21 210.36 1.54 210.24 2.02C210.18 2.62 210.03 3.31 209.79 4.09C209.31 5.83 208.8 7.54 208.26 9.22C207.72 10.9 207.21 12.61 206.73 14.35C205.47 19.15 204.36 23.92 203.4 28.66C202.5 33.4 201.81 38.23 201.33 43.15C201.21 44.29 201.06 45.43 200.88 46.57C200.76 47.65 200.67 48.76 200.61 49.9C200.43 52.18 200.28 54.49 200.16 56.83C200.04 59.11 200.01 61.42 200.07 63.76C200.13 64.18 200.16 64.57 200.16 64.93C200.16 65.29 200.16 65.68 200.16 66.1C200.1 67.96 200.19 69.79 200.43 71.59C200.67 73.39 200.97 75.19 201.33 76.99C201.39 77.17 201.48 77.56 201.6 78.16C201.78 78.76 201.96 79.39 202.14 80.05C202.32 80.77 202.5 81.37 202.68 81.85C202.92 82.39 203.13 82.66 203.31 82.66C203.79 82.66 204.39 82.15 205.11 81.13C205.83 80.11 206.55 78.94 207.27 77.62C207.99 76.36 208.62 75.13 209.16 73.93C209.76 72.73 210.15 71.95 210.33 71.59C211.53 68.59 212.67 65.59 213.75 62.59C214.89 59.59 216.03 56.56 217.17 53.5C217.59 52.3 218.04 51.1 218.52 49.9C219 48.7 219.57 47.53 220.23 46.39C220.35 46.27 220.44 46.18 220.5 46.12C220.56 46 220.65 45.88 220.77 45.76Z" fill="#E5D093"/>
</svg>
