<svg width="255" height="58" viewBox="0 0 255 58" fill="none" xmlns="http://www.w3.org/2000/svg">
<path d="M0.515625 32.38C0.515625 31.24 0.485625 30.13 0.425625 29.05C0.425625 27.91 0.455625 26.77 0.515625 25.63C0.575625 24.49 0.635625 23.38 0.695625 22.3C0.815625 21.16 0.935625 20.02 1.05563 18.88C1.11563 17.86 1.17563 16.87 1.23563 15.91C1.29563 14.89 1.35563 13.87 1.41563 12.85C1.53563 11.23 1.65563 9.64 1.77563 8.08C1.89563 6.46 2.01563 4.84 2.13563 3.22C2.25563 2.62 2.43563 2.11 2.67563 1.69C2.73563 1.45 2.91563 1.33 3.21563 1.33C3.33563 1.33 3.42563 1.36 3.48563 1.41999C3.78563 1.6 4.05563 1.78 4.29563 1.96C4.53563 2.14 4.74563 2.35 4.92563 2.59C5.04563 2.89 5.07563 3.19 5.01563 3.48999C5.01563 3.79 5.01563 4.09 5.01563 4.39C5.13563 6.43 5.13563 8.44 5.01563 10.42C4.89563 12.4 4.80563 14.41 4.74563 16.45C4.68563 17.05 4.62563 17.65 4.56563 18.25C4.50563 18.85 4.44563 19.48 4.38563 20.14C4.08563 22.84 3.87563 25.57 3.75563 28.33C3.63563 31.03 3.60563 33.73 3.66563 36.43C3.72563 38.11 3.78563 39.76 3.84563 41.38C3.90563 43 3.93563 44.62 3.93563 46.24C3.93563 47.5 3.90563 48.76 3.84563 50.02C3.84563 51.22 3.81563 52.45 3.75563 53.71V54.16C3.69563 54.52 3.45563 54.7 3.03563 54.7C2.91563 54.7 2.82563 54.67 2.76563 54.61C2.28563 54.19 1.95563 53.74 1.77563 53.26C1.65563 52.66 1.59563 52.21 1.59563 51.91C1.47563 50.23 1.32563 48.58 1.14563 46.96C0.965625 45.28 0.815625 43.57 0.695625 41.83C0.575625 40.27 0.515625 38.71 0.515625 37.15C0.575625 35.53 0.575625 33.94 0.515625 32.38ZM21.1587 12.31C21.0387 12.31 20.9187 12.31 20.7987 12.31C20.6787 12.25 20.5587 12.22 20.4387 12.22L17.4687 12.76C17.2887 12.82 17.0787 12.88 16.8387 12.94C16.6587 13 16.5087 13.12 16.3887 13.3C16.2087 13.54 15.9987 13.66 15.7587 13.66C15.6387 13.66 15.3987 13.6 15.0387 13.48C14.4987 13.18 14.1987 12.79 14.1387 12.31C14.1387 11.95 14.3187 11.59 14.6787 11.23C15.0387 10.99 15.4887 10.75 16.0287 10.51C16.6287 10.27 17.2287 10.06 17.8287 9.88C18.4887 9.7 19.1187 9.55 19.7187 9.43C20.3187 9.31 20.8287 9.22 21.2487 9.16C21.7287 9.04 22.1187 8.86 22.4187 8.62C22.7787 8.38 23.0487 8.02 23.2287 7.54C23.2287 7.42 23.3187 7.24 23.4987 7C23.7387 7.12 23.9787 7.24 24.2187 7.36C24.4587 7.48 24.6687 7.63 24.8487 7.81C24.9687 7.99 25.1487 8.08 25.3887 8.08H25.7487C27.3687 7.72 28.9587 7.39 30.5187 7.09C32.1387 6.73 33.7587 6.4 35.3787 6.1C36.3987 5.92 37.3887 5.74 38.3487 5.55999C39.3687 5.38 40.3887 5.29 41.4087 5.29H41.8587H42.3087C42.7287 5.29 43.0287 5.38 43.2087 5.55999C43.3887 5.74 43.6287 5.89 43.9287 6.01C44.2287 6.13 44.3187 6.34 44.1987 6.64C44.1387 6.82 43.9587 6.91 43.6587 6.91H43.2087H42.9387C42.2787 7.03 41.5887 7.18 40.8687 7.36C40.1487 7.48 39.4587 7.6 38.7987 7.72L27.1887 10.69C26.7687 10.81 26.3787 10.9 26.0187 10.96C25.6587 11.02 25.2687 11.11 24.8487 11.23C24.5487 11.29 24.3387 11.53 24.2187 11.95C24.0987 12.25 23.9787 12.55 23.8587 12.85C23.7987 13.09 23.7387 13.36 23.6787 13.66C23.1987 15.52 22.6887 17.38 22.1487 19.24C21.6687 21.1 21.1887 22.96 20.7087 24.82C20.6487 24.94 20.6187 25.09 20.6187 25.27C20.6187 25.39 20.5887 25.51 20.5287 25.63C20.5287 25.87 20.6487 25.96 20.8887 25.9C21.0687 25.9 21.2787 25.84 21.5187 25.72C24.0987 24.58 26.6487 24.01 29.1687 24.01C30.7287 24.01 32.2587 24.28 33.7587 24.82C35.2587 25.36 36.5787 26.11 37.7187 27.07C38.9187 28.03 39.8787 29.2 40.5987 30.58C41.3787 31.9 41.7987 33.37 41.8587 34.99C41.9187 36.13 41.8287 37.24 41.5887 38.32C41.4087 39.4 41.1387 40.48 40.7787 41.56C40.1787 43.18 39.3987 44.8 38.4387 46.42C37.4787 47.98 36.3387 49.39 35.0187 50.65C33.7587 51.91 32.3187 52.93 30.6987 53.71C29.1387 54.49 27.3987 54.88 25.4787 54.88C23.9187 54.88 22.4787 54.55 21.1587 53.89C19.8987 53.23 18.7587 52.15 17.7387 50.65C16.9587 49.45 16.3587 48.25 15.9387 47.05C15.5787 45.79 15.5187 44.44 15.7587 43C15.8187 42.82 15.9087 42.52 16.0287 42.1C16.2087 41.68 16.3887 41.26 16.5687 40.84C16.8087 40.36 17.0487 39.97 17.2887 39.67C17.5287 39.31 17.7687 39.13 18.0087 39.13C18.1287 39.13 18.2187 39.16 18.2787 39.22C18.3987 39.34 18.5187 39.46 18.6387 39.58C18.8187 39.64 18.8487 39.79 18.7287 40.03C18.6687 40.09 18.6087 40.15 18.5487 40.21C18.5487 40.27 18.5187 40.33 18.4587 40.39C17.6187 41.59 17.1687 42.82 17.1087 44.08C17.0487 45.34 17.2887 46.66 17.8287 48.04C18.2487 49.12 18.8787 50.17 19.7187 51.19C20.0187 51.43 20.2887 51.64 20.5287 51.82C20.8287 52 21.1287 52.12 21.4287 52.18C21.8487 52.3 22.2387 52.39 22.5987 52.45C23.0187 52.51 23.4687 52.54 23.9487 52.54C24.7287 52.54 25.6287 52.39 26.6487 52.09C29.8287 50.89 32.4387 48.94 34.4787 46.24C36.5787 43.48 38.0187 40.48 38.7987 37.24C39.1587 35.86 39.1887 34.36 38.8887 32.74C38.5287 30.76 37.5687 29.26 36.0087 28.24C34.4487 27.22 32.7087 26.71 30.7887 26.71C30.5487 26.71 30.3087 26.71 30.0687 26.71C29.8287 26.71 29.5887 26.74 29.3487 26.8C26.1087 27.16 23.2287 28.21 20.7087 29.95C20.4087 30.13 20.1387 30.34 19.8987 30.58C19.6587 30.82 19.3887 31.03 19.0887 31.21C18.7287 31.57 18.3687 31.75 18.0087 31.75C17.7087 31.75 17.3187 31.57 16.8387 31.21C16.4187 30.85 16.1187 30.49 15.9387 30.13C15.8187 29.71 15.8487 29.2 16.0287 28.6C16.6887 26.44 17.3487 24.28 18.0087 22.12C18.6687 19.9 19.3887 17.74 20.1687 15.64C20.3487 15.1 20.5287 14.56 20.7087 14.02C20.8887 13.48 21.0387 12.91 21.1587 12.31ZM53.1621 53.98C53.1621 53.5 53.2521 53.11 53.4321 52.81C53.6721 52.45 54.0621 52.27 54.6021 52.27C54.8421 52.27 55.0821 52.36 55.3221 52.54C55.6821 52.9 56.0721 53.17 56.4921 53.35C56.7921 53.47 57.0021 53.71 57.1221 54.07C57.2421 54.37 57.2421 54.67 57.1221 54.97C57.0021 55.09 56.9121 55.21 56.8521 55.33C56.7921 55.39 56.7021 55.48 56.5821 55.6C56.1021 56.2 55.5921 56.5 55.0521 56.5C54.8121 56.5 54.6321 56.47 54.5121 56.41C53.7321 56.11 53.2821 55.45 53.1621 54.43V53.98ZM66.2599 35.71C66.1999 31.99 66.4699 28.39 67.0699 24.91C67.4899 22.21 68.1199 19.6 68.9599 17.08C69.8599 14.5 71.2099 12.16 73.0099 10.06C73.4899 9.58 73.9699 9.16 74.4499 8.8C74.9899 8.44 75.6199 8.26 76.3399 8.26C76.7599 8.2 77.0599 7.96 77.2399 7.54C77.3599 7.18 77.5099 6.85 77.6899 6.55C77.8699 6.19 78.0799 5.83 78.3199 5.47C78.4999 5.23 78.6799 5.02 78.8599 4.84C79.0999 4.66 79.3399 4.48 79.5799 4.3C80.0599 4.06 80.4199 3.94 80.6599 3.94C80.9599 3.94 81.2299 4.03 81.4699 4.21C82.3099 4.69 83.0599 5.2 83.7199 5.74C84.3799 6.22 84.8899 6.94 85.2499 7.9C85.6099 8.86 85.9099 9.82 86.1499 10.78C86.3899 11.74 86.5399 12.73 86.5999 13.75C86.7199 15.79 86.6899 17.8 86.5099 19.78C86.3299 21.76 86.0899 23.74 85.7899 25.72C85.5499 27.76 85.2499 29.92 84.8899 32.2C84.5899 34.42 84.2299 36.67 83.8099 38.95C83.3899 41.23 82.8799 43.48 82.2799 45.7C81.7399 47.92 81.0799 49.99 80.2999 51.91C79.9999 52.75 79.5199 53.62 78.8599 54.52C78.2599 55.42 77.5399 56.08 76.6999 56.5C75.9799 56.92 75.3499 57.13 74.8099 57.13C73.9699 57.13 73.1899 56.86 72.4699 56.32C71.7499 55.72 71.0899 55 70.4899 54.16C69.8899 53.32 69.3799 52.45 68.9599 51.55C68.5999 50.59 68.2999 49.78 68.0599 49.12C66.9199 45.52 66.3199 41.92 66.2599 38.32C66.2599 37.84 66.2299 37.39 66.1699 36.97C66.1099 36.49 66.1399 36.07 66.2599 35.71ZM68.9599 36.43C68.9599 37.69 69.0199 39.1 69.1399 40.66C69.2599 42.16 69.4399 43.72 69.6799 45.34C69.9799 46.9 70.3699 48.4 70.8499 49.84C71.3299 51.28 71.9599 52.54 72.7399 53.62C73.0999 54.16 73.4899 54.43 73.9099 54.43C74.2099 54.43 74.5399 54.34 74.8999 54.16C75.3199 53.98 75.6199 53.74 75.7999 53.44C76.7599 52.48 77.5099 51.34 78.0499 50.02C78.6499 48.7 79.1299 47.38 79.4899 46.06C80.6899 41.86 81.6799 37.57 82.4599 33.19C83.2399 28.75 83.7799 24.34 84.0799 19.96C84.1999 18.4 84.2599 16.9 84.2599 15.46C84.2599 13.96 84.1399 12.43 83.8999 10.87C83.7799 10.21 83.6299 9.55 83.4499 8.88999C83.2699 8.23 82.9699 7.57 82.5499 6.91C82.3099 6.55 82.0099 6.37 81.6499 6.37C81.1099 6.37 80.5699 6.7 80.0299 7.36C79.5499 7.96 79.1899 8.47 78.9499 8.88999C78.8899 9.13 78.8899 9.4 78.9499 9.7C79.1299 10.18 79.0099 10.54 78.5899 10.78C78.2299 11.02 78.1099 11.35 78.2299 11.77C78.2299 11.95 78.2299 12.13 78.2299 12.31C78.2899 12.43 78.3199 12.58 78.3199 12.76C78.3199 12.94 78.2899 13.03 78.2299 13.03C78.0499 13.15 77.8999 13.15 77.7799 13.03C77.4799 12.91 77.2699 12.73 77.1499 12.49C77.0899 12.25 76.9999 11.98 76.8799 11.68C76.6999 11.14 76.4899 10.87 76.2499 10.87C76.0699 10.87 75.8599 10.99 75.6199 11.23C75.4399 11.47 75.2599 11.68 75.0799 11.86C74.8999 12.04 74.7199 12.25 74.5399 12.49C73.3999 14.17 72.4699 16 71.7499 17.98C71.0299 19.9 70.4599 21.91 70.0399 24.01C69.6799 26.05 69.4099 28.12 69.2299 30.22C69.1099 32.32 69.0199 34.39 68.9599 36.43ZM108.483 24.64C108.243 24.52 108.063 24.46 107.943 24.46C107.403 24.64 106.863 24.79 106.323 24.91C105.783 25.03 105.243 25.18 104.703 25.36C104.403 25.48 103.953 25.66 103.353 25.9C102.753 26.08 102.123 26.26 101.463 26.44C100.863 26.62 100.263 26.8 99.6633 26.98C99.0633 27.1 98.6133 27.16 98.3133 27.16C96.9933 27.16 96.0933 26.35 95.6133 24.73C95.5533 24.25 95.6433 23.8 95.8833 23.38C96.1233 22.96 96.3633 22.54 96.6033 22.12C96.9033 21.7 97.2033 21.28 97.5033 20.86C97.8633 20.32 98.4933 19.51 99.3933 18.43C100.293 17.29 101.313 16.03 102.453 14.65C103.593 13.21 104.793 11.74 106.053 10.24C107.313 8.68 108.543 7.27 109.743 6.01C110.943 4.69 112.023 3.58 112.983 2.68C113.943 1.72 114.663 1.12 115.143 0.879996C115.203 0.939995 115.263 0.999996 115.323 1.06C115.383 1.06 115.443 1.12 115.503 1.24C116.043 1.72 116.313 2.05 116.313 2.22999C116.373 2.35 116.163 2.68 115.683 3.22C113.523 6.04 111.213 8.89 108.753 11.77C106.233 15.01 103.803 18.34 101.463 21.76C101.403 21.88 101.343 22 101.283 22.12C101.223 22.24 101.163 22.36 101.103 22.48C100.983 22.72 101.043 22.84 101.283 22.84C101.403 22.84 101.523 22.84 101.643 22.84C101.763 22.78 101.883 22.75 102.003 22.75C102.663 22.57 103.323 22.39 103.983 22.21C104.703 21.97 105.393 21.79 106.053 21.67C106.713 21.49 107.343 21.37 107.943 21.31C108.543 21.25 109.173 21.22 109.833 21.22C110.433 21.22 110.853 20.95 111.093 20.41C111.273 20.11 111.693 19.42 112.353 18.34C113.013 17.2 113.733 16.03 114.513 14.83C115.293 13.57 115.983 12.46 116.583 11.5C117.243 10.48 117.663 9.97 117.843 9.97C117.903 9.97 118.113 10.09 118.473 10.33C118.593 10.39 118.713 10.48 118.833 10.6C118.893 10.6 118.923 10.66 118.923 10.78C118.083 12.22 117.243 13.66 116.403 15.1C115.623 16.54 114.813 17.98 113.973 19.42C113.793 19.78 113.553 20.14 113.253 20.5C113.013 20.86 112.953 21.25 113.073 21.67C113.193 22.03 113.463 22.3 113.883 22.48C114.303 22.6 114.663 22.78 114.963 23.02C116.283 23.74 117.093 24.88 117.393 26.44C117.633 27.82 117.633 29.17 117.393 30.49C117.213 31.75 116.883 33.01 116.403 34.27C115.863 35.83 115.143 37.48 114.243 39.22C113.343 40.9 112.353 42.55 111.273 44.17C110.193 45.79 109.053 47.35 107.853 48.85C106.653 50.29 105.453 51.58 104.253 52.72C103.773 53.2 103.263 53.71 102.723 54.25C102.243 54.73 101.673 55.12 101.013 55.42C100.773 55.54 100.623 55.63 100.563 55.69C99.8433 56.05 99.2133 56.23 98.6733 56.23C97.8333 56.23 97.2033 55.9 96.7833 55.24C96.4233 54.58 96.2133 53.83 96.1533 52.99C96.0933 52.51 96.1233 52.03 96.2433 51.55C96.3633 51.01 96.4833 50.5 96.6033 50.02C97.0833 48.1 97.7433 46.09 98.5833 43.99C99.4233 41.89 100.383 39.79 101.463 37.69C102.543 35.53 103.653 33.43 104.793 31.39C105.993 29.29 107.103 27.37 108.123 25.63C108.183 25.45 108.243 25.3 108.303 25.18C108.363 25 108.423 24.82 108.483 24.64ZM114.693 26.35C114.573 25.63 114.363 25.12 114.063 24.82C113.763 24.46 113.253 24.22 112.533 24.1C112.173 24.1 111.843 24.13 111.543 24.19C111.303 24.25 111.093 24.49 110.913 24.91C110.433 25.81 109.953 26.71 109.473 27.61C108.993 28.51 108.513 29.41 108.033 30.31C106.773 32.53 105.543 34.78 104.343 37.06C103.143 39.28 102.003 41.56 100.923 43.9C100.383 45.16 99.8733 46.42 99.3933 47.68C98.9133 48.94 98.5233 50.23 98.2233 51.55C98.0433 52.33 97.9833 53.05 98.0433 53.71C98.0433 53.89 98.1333 53.98 98.3133 53.98H98.4933C98.6133 53.98 98.7033 53.95 98.7633 53.89C98.8833 53.83 99.0033 53.77 99.1233 53.71C100.503 52.81 101.943 51.49 103.443 49.75C104.943 48.01 106.383 46.15 107.763 44.17C109.143 42.13 110.373 40.06 111.453 37.96C112.533 35.86 113.343 33.97 113.883 32.29C114.183 31.27 114.393 30.28 114.513 29.32C114.633 28.36 114.693 27.37 114.693 26.35ZM127.957 53.98C127.957 53.5 128.047 53.11 128.227 52.81C128.467 52.45 128.857 52.27 129.397 52.27C129.637 52.27 129.877 52.36 130.117 52.54C130.477 52.9 130.867 53.17 131.287 53.35C131.587 53.47 131.797 53.71 131.917 54.07C132.037 54.37 132.037 54.67 131.917 54.97C131.797 55.09 131.707 55.21 131.647 55.33C131.587 55.39 131.497 55.48 131.377 55.6C130.897 56.2 130.387 56.5 129.847 56.5C129.607 56.5 129.427 56.47 129.307 56.41C128.527 56.11 128.077 55.45 127.957 54.43V53.98ZM148.975 55.33C150.895 55.27 152.785 55.12 154.645 54.88C156.505 54.64 158.395 54.31 160.315 53.89C161.035 53.77 161.605 53.56 162.025 53.26C162.265 53.14 162.445 53.08 162.565 53.08C162.925 53.08 163.255 53.23 163.555 53.53C163.855 53.77 163.855 54.04 163.555 54.34C163.315 54.64 163.045 54.85 162.745 54.97C162.445 55.09 162.145 55.21 161.845 55.33C160.105 56.05 158.155 56.59 155.995 56.95C153.895 57.25 151.885 57.4 149.965 57.4C148.705 57.28 147.445 57.13 146.185 56.95C144.925 56.71 143.785 56.17 142.765 55.33C141.805 54.31 141.595 53.23 142.135 52.09C142.375 51.37 142.795 50.56 143.395 49.66C144.475 48.04 145.585 46.42 146.725 44.8C147.865 43.18 149.005 41.56 150.145 39.94C152.425 36.58 154.525 33.07 156.445 29.41C158.425 25.75 159.745 21.88 160.405 17.8C160.585 16.42 160.675 15.07 160.675 13.75C160.735 12.43 160.615 11.08 160.315 9.7C159.595 7.18 157.915 5.92 155.275 5.92C154.315 5.92 153.205 6.28 151.945 7C150.745 7.66 149.815 8.32 149.155 8.98C146.275 11.74 144.445 14.98 143.665 18.7C143.545 19.18 143.455 19.69 143.395 20.23C143.395 20.71 143.455 21.22 143.575 21.76C143.695 22.3 143.875 22.69 144.115 22.93C144.415 23.11 144.865 23.26 145.465 23.38C145.645 23.44 145.975 23.47 146.455 23.47C146.695 23.47 146.815 23.56 146.815 23.74C146.695 23.98 146.575 24.13 146.455 24.19C146.035 24.43 145.585 24.55 145.105 24.55C144.445 24.55 143.845 24.37 143.305 24.01C142.825 23.65 142.405 23.2 142.045 22.66C141.745 22.12 141.475 21.52 141.235 20.86C141.055 20.2 140.965 19.6 140.965 19.06C140.905 18.4 140.905 17.77 140.965 17.17C141.025 16.51 141.175 15.85 141.415 15.19C141.835 13.87 142.405 12.55 143.125 11.23C143.905 9.91 144.805 8.71 145.825 7.63C146.845 6.55 147.985 5.65 149.245 4.93C150.565 4.15 151.975 3.7 153.475 3.58C153.655 3.58 153.805 3.58 153.925 3.58C154.105 3.52 154.285 3.48999 154.465 3.48999C155.485 3.48999 156.445 3.75999 157.345 4.3C157.885 4.66 158.455 4.99 159.055 5.29C160.735 6.31 161.875 7.87 162.475 9.97C162.835 11.17 163.045 12.4 163.105 13.66C163.165 14.86 163.135 16.09 163.015 17.35C162.355 22.15 160.855 26.59 158.515 30.67C156.235 34.69 153.685 38.62 150.865 42.46L144.385 51.37C144.025 51.79 143.695 52.36 143.395 53.08C143.035 54.04 143.335 54.64 144.295 54.88C144.655 55 145.135 55.12 145.735 55.24C146.275 55.3 146.815 55.33 147.355 55.33C147.895 55.33 148.435 55.33 148.975 55.33ZM172.871 35.71C172.811 31.99 173.081 28.39 173.681 24.91C174.101 22.21 174.731 19.6 175.571 17.08C176.471 14.5 177.821 12.16 179.621 10.06C180.101 9.58 180.581 9.16 181.061 8.8C181.601 8.44 182.231 8.26 182.951 8.26C183.371 8.2 183.671 7.96 183.851 7.54C183.971 7.18 184.121 6.85 184.301 6.55C184.481 6.19 184.691 5.83 184.931 5.47C185.111 5.23 185.291 5.02 185.471 4.84C185.711 4.66 185.951 4.48 186.191 4.3C186.671 4.06 187.031 3.94 187.271 3.94C187.571 3.94 187.841 4.03 188.081 4.21C188.921 4.69 189.671 5.2 190.331 5.74C190.991 6.22 191.501 6.94 191.861 7.9C192.221 8.86 192.521 9.82 192.761 10.78C193.001 11.74 193.151 12.73 193.211 13.75C193.331 15.79 193.301 17.8 193.121 19.78C192.941 21.76 192.701 23.74 192.401 25.72C192.161 27.76 191.861 29.92 191.501 32.2C191.201 34.42 190.841 36.67 190.421 38.95C190.001 41.23 189.491 43.48 188.891 45.7C188.351 47.92 187.691 49.99 186.911 51.91C186.611 52.75 186.131 53.62 185.471 54.52C184.871 55.42 184.151 56.08 183.311 56.5C182.591 56.92 181.961 57.13 181.421 57.13C180.581 57.13 179.801 56.86 179.081 56.32C178.361 55.72 177.701 55 177.101 54.16C176.501 53.32 175.991 52.45 175.571 51.55C175.211 50.59 174.911 49.78 174.671 49.12C173.531 45.52 172.931 41.92 172.871 38.32C172.871 37.84 172.841 37.39 172.781 36.97C172.721 36.49 172.751 36.07 172.871 35.71ZM175.571 36.43C175.571 37.69 175.631 39.1 175.751 40.66C175.871 42.16 176.051 43.72 176.291 45.34C176.591 46.9 176.981 48.4 177.461 49.84C177.941 51.28 178.571 52.54 179.351 53.62C179.711 54.16 180.101 54.43 180.521 54.43C180.821 54.43 181.151 54.34 181.511 54.16C181.931 53.98 182.231 53.74 182.411 53.44C183.371 52.48 184.121 51.34 184.661 50.02C185.261 48.7 185.741 47.38 186.101 46.06C187.301 41.86 188.291 37.57 189.071 33.19C189.851 28.75 190.391 24.34 190.691 19.96C190.811 18.4 190.871 16.9 190.871 15.46C190.871 13.96 190.751 12.43 190.511 10.87C190.391 10.21 190.241 9.55 190.061 8.88999C189.881 8.23 189.581 7.57 189.161 6.91C188.921 6.55 188.621 6.37 188.261 6.37C187.721 6.37 187.181 6.7 186.641 7.36C186.161 7.96 185.801 8.47 185.561 8.88999C185.501 9.13 185.501 9.4 185.561 9.7C185.741 10.18 185.621 10.54 185.201 10.78C184.841 11.02 184.721 11.35 184.841 11.77C184.841 11.95 184.841 12.13 184.841 12.31C184.901 12.43 184.931 12.58 184.931 12.76C184.931 12.94 184.901 13.03 184.841 13.03C184.661 13.15 184.511 13.15 184.391 13.03C184.091 12.91 183.881 12.73 183.761 12.49C183.701 12.25 183.611 11.98 183.491 11.68C183.311 11.14 183.101 10.87 182.861 10.87C182.681 10.87 182.471 10.99 182.231 11.23C182.051 11.47 181.871 11.68 181.691 11.86C181.511 12.04 181.331 12.25 181.151 12.49C180.011 14.17 179.081 16 178.361 17.98C177.641 19.9 177.071 21.91 176.651 24.01C176.291 26.05 176.021 28.12 175.841 30.22C175.721 32.32 175.631 34.39 175.571 36.43ZM210.235 55.33C212.155 55.27 214.045 55.12 215.905 54.88C217.765 54.64 219.655 54.31 221.575 53.89C222.295 53.77 222.865 53.56 223.285 53.26C223.525 53.14 223.705 53.08 223.825 53.08C224.185 53.08 224.515 53.23 224.815 53.53C225.115 53.77 225.115 54.04 224.815 54.34C224.575 54.64 224.305 54.85 224.005 54.97C223.705 55.09 223.405 55.21 223.105 55.33C221.365 56.05 219.415 56.59 217.255 56.95C215.155 57.25 213.145 57.4 211.225 57.4C209.965 57.28 208.705 57.13 207.445 56.95C206.185 56.71 205.045 56.17 204.025 55.33C203.065 54.31 202.855 53.23 203.395 52.09C203.635 51.37 204.055 50.56 204.655 49.66C205.735 48.04 206.845 46.42 207.985 44.8C209.125 43.18 210.265 41.56 211.405 39.94C213.685 36.58 215.785 33.07 217.705 29.41C219.685 25.75 221.005 21.88 221.665 17.8C221.845 16.42 221.935 15.07 221.935 13.75C221.995 12.43 221.875 11.08 221.575 9.7C220.855 7.18 219.175 5.92 216.535 5.92C215.575 5.92 214.465 6.28 213.205 7C212.005 7.66 211.075 8.32 210.415 8.98C207.535 11.74 205.705 14.98 204.925 18.7C204.805 19.18 204.715 19.69 204.655 20.23C204.655 20.71 204.715 21.22 204.835 21.76C204.955 22.3 205.135 22.69 205.375 22.93C205.675 23.11 206.125 23.26 206.725 23.38C206.905 23.44 207.235 23.47 207.715 23.47C207.955 23.47 208.075 23.56 208.075 23.74C207.955 23.98 207.835 24.13 207.715 24.19C207.295 24.43 206.845 24.55 206.365 24.55C205.705 24.55 205.105 24.37 204.565 24.01C204.085 23.65 203.665 23.2 203.305 22.66C203.005 22.12 202.735 21.52 202.495 20.86C202.315 20.2 202.225 19.6 202.225 19.06C202.165 18.4 202.165 17.77 202.225 17.17C202.285 16.51 202.435 15.85 202.675 15.19C203.095 13.87 203.665 12.55 204.385 11.23C205.165 9.91 206.065 8.71 207.085 7.63C208.105 6.55 209.245 5.65 210.505 4.93C211.825 4.15 213.235 3.7 214.735 3.58C214.915 3.58 215.065 3.58 215.185 3.58C215.365 3.52 215.545 3.48999 215.725 3.48999C216.745 3.48999 217.705 3.75999 218.605 4.3C219.145 4.66 219.715 4.99 220.315 5.29C221.995 6.31 223.135 7.87 223.735 9.97C224.095 11.17 224.305 12.4 224.365 13.66C224.425 14.86 224.395 16.09 224.275 17.35C223.615 22.15 222.115 26.59 219.775 30.67C217.495 34.69 214.945 38.62 212.125 42.46L205.645 51.37C205.285 51.79 204.955 52.36 204.655 53.08C204.295 54.04 204.595 54.64 205.555 54.88C205.915 55 206.395 55.12 206.995 55.24C207.535 55.3 208.075 55.33 208.615 55.33C209.155 55.33 209.695 55.33 210.235 55.33ZM234.131 35.71C234.071 31.99 234.341 28.39 234.941 24.91C235.361 22.21 235.991 19.6 236.831 17.08C237.731 14.5 239.081 12.16 240.881 10.06C241.361 9.58 241.841 9.16 242.321 8.8C242.861 8.44 243.491 8.26 244.211 8.26C244.631 8.2 244.931 7.96 245.111 7.54C245.231 7.18 245.381 6.85 245.561 6.55C245.741 6.19 245.951 5.83 246.191 5.47C246.371 5.23 246.551 5.02 246.731 4.84C246.971 4.66 247.211 4.48 247.451 4.3C247.931 4.06 248.291 3.94 248.531 3.94C248.831 3.94 249.101 4.03 249.341 4.21C250.181 4.69 250.931 5.2 251.591 5.74C252.251 6.22 252.761 6.94 253.121 7.9C253.481 8.86 253.781 9.82 254.021 10.78C254.261 11.74 254.411 12.73 254.471 13.75C254.591 15.79 254.561 17.8 254.381 19.78C254.201 21.76 253.961 23.74 253.661 25.72C253.421 27.76 253.121 29.92 252.761 32.2C252.461 34.42 252.101 36.67 251.681 38.95C251.261 41.23 250.751 43.48 250.151 45.7C249.611 47.92 248.951 49.99 248.171 51.91C247.871 52.75 247.391 53.62 246.731 54.52C246.131 55.42 245.411 56.08 244.571 56.5C243.851 56.92 243.221 57.13 242.681 57.13C241.841 57.13 241.061 56.86 240.341 56.32C239.621 55.72 238.961 55 238.361 54.16C237.761 53.32 237.251 52.45 236.831 51.55C236.471 50.59 236.171 49.78 235.931 49.12C234.791 45.52 234.191 41.92 234.131 38.32C234.131 37.84 234.101 37.39 234.041 36.97C233.981 36.49 234.011 36.07 234.131 35.71ZM236.831 36.43C236.831 37.69 236.891 39.1 237.011 40.66C237.131 42.16 237.311 43.72 237.551 45.34C237.851 46.9 238.241 48.4 238.721 49.84C239.201 51.28 239.831 52.54 240.611 53.62C240.971 54.16 241.361 54.43 241.781 54.43C242.081 54.43 242.411 54.34 242.771 54.16C243.191 53.98 243.491 53.74 243.671 53.44C244.631 52.48 245.381 51.34 245.921 50.02C246.521 48.7 247.001 47.38 247.361 46.06C248.561 41.86 249.551 37.57 250.331 33.19C251.111 28.75 251.651 24.34 251.951 19.96C252.071 18.4 252.131 16.9 252.131 15.46C252.131 13.96 252.011 12.43 251.771 10.87C251.651 10.21 251.501 9.55 251.321 8.88999C251.141 8.23 250.841 7.57 250.421 6.91C250.181 6.55 249.881 6.37 249.521 6.37C248.981 6.37 248.441 6.7 247.901 7.36C247.421 7.96 247.061 8.47 246.821 8.88999C246.761 9.13 246.761 9.4 246.821 9.7C247.001 10.18 246.881 10.54 246.461 10.78C246.101 11.02 245.981 11.35 246.101 11.77C246.101 11.95 246.101 12.13 246.101 12.31C246.161 12.43 246.191 12.58 246.191 12.76C246.191 12.94 246.161 13.03 246.101 13.03C245.921 13.15 245.771 13.15 245.651 13.03C245.351 12.91 245.141 12.73 245.021 12.49C244.961 12.25 244.871 11.98 244.751 11.68C244.571 11.14 244.361 10.87 244.121 10.87C243.941 10.87 243.731 10.99 243.491 11.23C243.311 11.47 243.131 11.68 242.951 11.86C242.771 12.04 242.591 12.25 242.411 12.49C241.271 14.17 240.341 16 239.621 17.98C238.901 19.9 238.331 21.91 237.911 24.01C237.551 26.05 237.281 28.12 237.101 30.22C236.981 32.32 236.891 34.39 236.831 36.43Z" fill="#E5D093"/>
</svg>
